<svg width="103" height="23" fill="none" xmlns="http://www.w3.org/2000/svg"><path d="M1.224 18V5.4H9.45v1.854H3.528v3.456H8.91v1.8H3.528v3.636H9.45V18H1.224zm10.226 0V5.4h2.304v10.8h5.58V18H11.45zm9.734 0V5.4h2.304V18h-2.304zm10.074.216c-1.188 0-2.226-.27-3.114-.81a5.519 5.519 0 01-2.07-2.25c-.492-.972-.738-2.1-.738-3.384 0-1.296.252-2.436.756-3.42A5.652 5.652 0 0128.27 6.03c.948-.564 2.07-.846 3.366-.846 1.476 0 2.7.354 3.672 1.062.972.708 1.602 1.686 1.89 2.934h-2.574a2.495 2.495 0 00-1.044-1.368c-.504-.336-1.152-.504-1.944-.504-1.26 0-2.232.402-2.916 1.206-.684.792-1.026 1.884-1.026 3.276s.336 2.472 1.008 3.24c.684.756 1.608 1.134 2.772 1.134 1.14 0 1.998-.306 2.574-.918.588-.624.942-1.44 1.062-2.448h-3.186V11.07h5.508V18h-2.124l-.18-1.656a4.223 4.223 0 01-1.53 1.386c-.612.324-1.392.486-2.34.486zM39.492 18V5.4h2.304V18h-2.304zm4.566 0V5.4h5.058c1.308 0 2.304.306 2.988.918.696.6 1.044 1.374 1.044 2.322 0 .792-.216 1.428-.648 1.908-.42.468-.936.786-1.548.954.72.144 1.314.504 1.782 1.08.468.564.702 1.224.702 1.98 0 .996-.36 1.818-1.08 2.466-.72.648-1.74.972-3.06.972h-5.238zm2.304-7.308h2.412c.648 0 1.146-.15 1.494-.45.348-.3.522-.726.522-1.278 0-.528-.174-.942-.522-1.242-.336-.312-.846-.468-1.53-.468h-2.376v3.438zm0 5.436h2.574c.684 0 1.212-.156 1.584-.468.384-.324.576-.774.576-1.35 0-.588-.198-1.05-.594-1.386-.396-.336-.93-.504-1.602-.504h-2.538v3.708zM55.234 18V5.4h2.304V18h-2.304zm4.566 0V5.4h2.304v10.8h5.58V18H59.8zm9.734 0V5.4h8.226v1.854h-5.922v3.456h5.382v1.8h-5.382v3.636h5.922V18h-8.226z" fill="#0CE800"/><path d="M99.667 6.5L90.5 15.667 86.333 11.5" stroke="#0CE800" stroke-width="2.5" stroke-linecap="round" stroke-linejoin="round"/></svg>