<svg width="686" height="210" fill="none" xmlns="http://www.w3.org/2000/svg"><path d="M9.855 17h-1.76l-.52-3.12h-2.44L4.655 17h-1.74l2.26-13.28h2.42L9.855 17zM6.315 6.52l-.94 5.82h1.96l-.94-5.82h-.08zM12.456 17h-1.8V3.72h4.9v1.62h-3.1v4.08h2.68v1.6h-2.68V17zm5.82 0h-1.8V3.72h4.9v1.62h-3.1v4.08h2.68v1.6h-2.68V17zm5.821 0h-1.8V3.72h1.8V17zm6.151 0h-5.08V3.72h1.8v11.64h3.28V17zm2.697 0h-1.8V3.72h1.8V17zm7.71 0h-1.76l-.52-3.12h-2.44l-.48 3.12h-1.74l2.26-13.28h2.42L40.656 17zm-3.54-10.48l-.94 5.82h1.96l-.94-5.82h-.08zM43.814 17h-1.78V5.34h-2.22V3.72h6.26v1.62h-2.26V17zm8.112 0h-4.96V3.72h4.8v1.62h-3.04v3.88h2.78v1.64h-2.78v4.52h3.2V17zm9.983 0h-2.1l-3.04-10.28h-.08c.04.973.06 1.907.06 2.8V17h-1.58V3.72h2.36l2.78 9.54h.08c-.04-1.267-.06-2.34-.06-3.22V3.72h1.58V17zm6.052 0H63V3.72h4.8v1.62h-3.04v3.88h2.78v1.64h-2.78v4.52h3.2V17zm4.72 0H70.9V5.34h-2.22V3.72h6.26v1.62h-2.26V17zm6.712 0h-2.26l-1.6-13.28h1.72l1.16 10.1h.08l1.24-10.1h2.02l1.28 10.1h.08l1.14-10.1h1.7L84.352 17h-2.26l-1.32-10.28h-.08L79.392 17zm13.441-9.94v6.74c0 1.093-.266 1.92-.8 2.48-.533.56-1.306.84-2.32.84-1.026 0-1.813-.287-2.36-.86-.546-.587-.82-1.42-.82-2.5V7.02c0-1.08.274-1.92.82-2.52.56-.6 1.34-.9 2.34-.9 1 0 1.774.307 2.32.92.547.613.82 1.46.82 2.54zm-1.76 6.84v-7c0-1.08-.466-1.62-1.4-1.62-.426 0-.76.14-1 .42-.24.267-.36.66-.36 1.18v7c0 1.053.46 1.58 1.38 1.58.92 0 1.38-.52 1.38-1.56zM95.62 17h-1.76V3.72h3.7c.893 0 1.533.227 1.92.68.4.44.599 1.1.599 1.98V8.2c0 1.213-.453 1.933-1.36 2.16v.08c.934.173 1.4.887 1.4 2.14V17h-1.76v-4.56c0-.44-.08-.753-.24-.94-.16-.187-.453-.28-.88-.28h-1.62V17zm2.72-8.64V6.58c0-.827-.394-1.24-1.18-1.24h-1.54v4.38h1.56c.773 0 1.16-.453 1.16-1.36zm9.365 8.64h-1.82l-1.9-5.74h-.08l-.96 1.88V17h-1.82V3.72h1.82v5.96h.08l2.88-5.96h1.82l-2.5 5.26 2.48 8.02z" fill="#fff"/><path d="M257.488 173.9c0 4.16-.693 7.843-2.08 11.05 1.907.26 4.074.39 6.5.39v10.53c-5.806 0-10.746-.693-14.82-2.08-2.946 1.387-6.37 2.08-10.27 2.08-6.586 0-11.7-2.08-15.34-6.24-3.64-4.247-5.46-9.533-5.46-15.86v-43.94c0-7.367 1.734-13 5.2-16.9 3.554-3.9 8.797-5.85 15.73-5.85 13.694 0 20.54 7.583 20.54 22.75v44.07zm-12.74 6.24c.78-1.56 1.17-3.597 1.17-6.11v-45.11c0-3.467-.78-6.11-2.34-7.93-1.473-1.907-3.683-2.86-6.63-2.86-2.946 0-5.243.953-6.89 2.86-1.56 1.82-2.34 4.42-2.34 7.8v45.24c0 5.98 2.34 9.403 7.02 10.27-2.513-4.16-3.77-9.273-3.77-15.34h10.53c0 4.94 1.084 8.667 3.25 11.18zm-5.2 15.73c-5.46 0-5.46 0 0 0zm64.523-30.81v9.88c0 7.02-1.733 12.437-5.2 16.25-3.467 3.727-8.537 5.59-15.21 5.59-13.26 0-19.89-7.193-19.89-21.58v-4.29h11.05v4.94c0 6.76 2.86 10.14 8.58 10.14 6.067 0 9.1-3.423 9.1-10.27v-11.44c0-2.947-.737-5.157-2.21-6.63-1.473-1.56-3.987-2.34-7.54-2.34h-5.46v-9.75h5.85c3.38 0 5.677-.737 6.89-2.21 1.3-1.473 1.95-3.597 1.95-6.37v-8.06c0-2.687-.737-4.853-2.21-6.5-1.387-1.733-3.51-2.6-6.37-2.6-2.687 0-4.81.867-6.37 2.6-1.473 1.647-2.21 3.857-2.21 6.63v5.07h-11.05v-4.03c0-6.5 1.733-11.657 5.2-15.47 3.553-3.813 8.407-5.72 14.56-5.72 6.327 0 11.093 1.863 14.3 5.59 3.293 3.727 4.94 8.147 4.94 13.26v8.06c0 8.233-3.033 12.87-9.1 13.91v.52c3.033.607 5.503 2.123 7.41 4.55 1.993 2.34 2.99 5.763 2.99 10.27zM369.407 196h-13.65l-19.76-66.82h-.52c.26 6.327.39 12.393.39 18.2V196h-10.27v-86.32h15.34l18.07 62.01h.52c-.26-8.233-.39-15.21-.39-20.93v-41.08h10.27V196zm39.338 0h-32.24v-86.32h31.2v10.53h-19.76v25.22h18.07v10.66h-18.07v29.38h20.8V196zm30.679 0h-11.57v-75.79h-14.43v-10.53h40.69v10.53h-14.69V196zm43.63 0h-14.69l-10.4-86.32h11.18l7.54 65.65h.52l8.06-65.65h13.13l8.32 65.65h.52l7.41-65.65h11.05l-10.4 86.32h-14.69l-8.58-66.82h-.52l-8.45 66.82zm87.368-64.61v43.81c0 7.107-1.734 12.48-5.2 16.12-3.467 3.64-8.494 5.46-15.08 5.46-6.674 0-11.787-1.863-15.34-5.59-3.554-3.813-5.33-9.23-5.33-16.25v-43.81c0-7.02 1.776-12.48 5.33-16.38 3.64-3.9 8.71-5.85 15.21-5.85s11.526 1.993 15.08 5.98c3.553 3.987 5.33 9.49 5.33 16.51zm-11.44 44.46v-45.5c0-7.02-3.034-10.53-9.1-10.53-2.774 0-4.94.91-6.5 2.73-1.56 1.733-2.34 4.29-2.34 7.67v45.5c0 6.847 2.99 10.27 8.97 10.27s8.97-3.38 8.97-10.14zM588.531 196h-11.44v-86.32h24.05c5.807 0 9.967 1.473 12.48 4.42 2.6 2.86 3.9 7.15 3.9 12.87v11.83c0 7.887-2.946 12.567-8.84 14.04v.52c6.067 1.127 9.1 5.763 9.1 13.91V196h-11.44v-29.64c0-2.86-.52-4.897-1.56-6.11s-2.946-1.82-5.72-1.82h-10.53V196zm17.68-56.16v-11.57c0-5.373-2.556-8.06-7.67-8.06h-10.01v28.47h10.14c5.027 0 7.54-2.947 7.54-8.84zM667.088 196h-11.83l-12.35-37.31h-.52l-6.24 12.22V196h-11.83v-86.32h11.83v38.74h.52l18.72-38.74h11.83l-16.25 34.19 16.12 52.13z" fill="#E80C88"/><path d="M637.469 82.512h-1.344v-.608c0-.853-.378-1.28-1.136-1.28-.373 0-.656.101-.848.304-.181.203-.272.47-.272.8v.416c0 .427.208.805.624 1.136.214.16.614.432 1.2.816.587.373.987.656 1.2.848.512.448.768 1.088.768 1.92v.656c0 1.717-.88 2.576-2.64 2.576-.906 0-1.573-.219-2-.656-.416-.448-.624-1.12-.624-2.016v-.608h1.36v.624c0 .885.411 1.328 1.232 1.328.779 0 1.168-.405 1.168-1.216v-.48c0-.32-.048-.57-.144-.752-.096-.181-.277-.379-.544-.592-.192-.16-.549-.416-1.072-.768-.512-.352-.89-.645-1.136-.88-.544-.565-.816-1.216-.816-1.952v-.464c0-.736.208-1.317.624-1.744.416-.427 1.051-.64 1.904-.64.907 0 1.547.245 1.92.736.384.48.576 1.157.576 2.032v.464zM639.901 90h-1.44V79.376h1.44V90zm6.249 0h-1.68l-2.432-8.224h-.064c.032.779.048 1.525.048 2.24V90h-1.264V79.376h1.888l2.224 7.632h.064a83.67 83.67 0 01-.048-2.576v-5.056h1.264V90zm4.458-2.48v-1.856h1.36v1.776c0 1.77-.816 2.656-2.448 2.656-.822 0-1.446-.23-1.872-.688-.416-.459-.624-1.125-.624-2v-5.472c0-1.77.816-2.656 2.448-2.656 1.664 0 2.496.88 2.496 2.64v1.264h-1.36V81.92c0-.864-.363-1.296-1.088-1.296-.715 0-1.072.427-1.072 1.28v5.616c0 .832.357 1.248 1.072 1.248.725 0 1.088-.416 1.088-1.248zm6.196 2.48h-3.968V79.376h3.84v1.296h-2.432v3.104h2.224v1.312h-2.224v3.616h2.56V90zm7.523 0h-4.928v-1.712c0-.533.053-.97.16-1.312a3.18 3.18 0 01.608-1.04c.234-.277.64-.656 1.216-1.136.586-.48.965-.821 1.136-1.024.288-.33.432-.79.432-1.376v-.592c0-.416-.08-.715-.24-.896-.15-.192-.427-.288-.832-.288-.416 0-.699.101-.848.304-.15.203-.224.533-.224.992v.736h-1.344v-.608c0-1.003.154-1.712.464-2.128.32-.427.976-.64 1.968-.64.938 0 1.573.192 1.904.576.341.384.512 1.019.512 1.904v.704c0 .79-.224 1.44-.672 1.952-.192.213-.576.57-1.152 1.072-.576.501-.95.848-1.12 1.04a2.166 2.166 0 00-.544 1.472v.736h3.504V90zm5.831-7.344v4.064c0 2.25-.827 3.376-2.48 3.376-.832 0-1.467-.288-1.904-.864-.438-.587-.656-1.435-.656-2.544v-4c0-1.11.218-1.952.656-2.528.437-.587 1.072-.88 1.904-.88 1.653 0 2.48 1.125 2.48 3.376zm-1.408 4.08V82.64c0-1.355-.368-2.032-1.104-2.032-.736 0-1.104.683-1.104 2.048v4.064c0 1.365.368 2.048 1.104 2.048.736 0 1.104-.677 1.104-2.032zM675.967 90h-4.928v-1.712c0-.533.054-.97.16-1.312a3.2 3.2 0 01.608-1.04c.235-.277.64-.656 1.216-1.136.587-.48.966-.821 1.136-1.024.288-.33.432-.79.432-1.376v-.592c0-.416-.08-.715-.24-.896-.149-.192-.426-.288-.832-.288-.416 0-.698.101-.848.304-.149.203-.224.533-.224.992v.736h-1.344v-.608c0-1.003.155-1.712.464-2.128.32-.427.976-.64 1.968-.64.939 0 1.574.192 1.904.576.342.384.512 1.019.512 1.904v.704c0 .79-.224 1.44-.672 1.952-.192.213-.576.57-1.152 1.072-.576.501-.949.848-1.12 1.04a2.171 2.171 0 00-.544 1.472v.736h3.504V90zm5.751-3.808v1.216c0 .864-.213 1.53-.64 2-.426.459-1.05.688-1.872.688-1.632 0-2.448-.885-2.448-2.656v-.528h1.36v.608c0 .832.352 1.248 1.056 1.248.747 0 1.12-.421 1.12-1.264v-1.408c0-.363-.09-.635-.272-.816-.181-.192-.49-.288-.928-.288h-.672v-1.2h.72c.416 0 .699-.09.848-.272.16-.181.24-.443.24-.784v-.992c0-.33-.09-.597-.272-.8-.17-.213-.432-.32-.784-.32-.33 0-.592.107-.784.32-.181.203-.272.475-.272.816v.624h-1.36v-.496c0-.8.214-1.435.64-1.904.438-.47 1.035-.704 1.792-.704.779 0 1.366.23 1.76.688a2.38 2.38 0 01.608 1.632v.992c0 1.013-.373 1.584-1.12 1.712v.064c.374.075.678.261.912.56.246.288.368.71.368 1.264z" fill="#fff"/><path d="M210 96.5L116.5 23H3m207.5 74.5h473v112h-473z" stroke="#fff"/></svg>