<svg width="171" height="36" fill="none" xmlns="http://www.w3.org/2000/svg"><path d="M.918 23.663c3.58-3.683 6.872-8.303 9.03-12.168a3.229 3.229 0 012.807-1.67h10.621c1.171 0 2.24.648 2.81 1.67 2.157 3.865 5.449 8.485 9.029 12.168 1.982 2.04.543 5.456-2.302 5.456H3.22c-2.845 0-4.284-3.416-2.302-5.456zm61.265-1.726c-.605 3.027-2.989 7.566-9.078 7.566-5.676 0-9.836-4.162-9.836-10.026 0-5.863 4.161-10.024 9.834-10.024 6.091 0 8.474 4.539 9.08 7.376h-4.73c-.416-1.096-1.511-3.026-4.35-3.026-2.838 0-5.107 2.269-5.107 5.674 0 3.405 2.27 5.675 5.107 5.675 2.838 0 3.936-1.892 4.35-3.216l4.73.002zm16.169 5.296h-.19c-.36.436-.78.818-1.248 1.135-.87.567-2.27 1.135-4.237 1.135-5.107 0-9.079-3.972-9.079-10.026 0-6.052 3.972-10.024 9.08-10.024 1.966 0 3.365.566 4.236 1.134.493.342.909.72 1.249 1.136h.189l.379-1.894h4.161v19.294H78.73l-.378-1.891zm-.19-7.755c0-3.632-2.042-5.674-4.917-5.674-2.874 0-4.917 2.042-4.917 5.674 0 3.633 2.043 5.675 4.916 5.675 2.876 0 4.919-2.043 4.919-5.675zm8.384-16.08h4.73v20.238c0 .758.378 1.136 1.134 1.135h2.837v4.35h-3.971c-3.026 0-4.73-1.664-4.73-4.539V3.398zm23.955 23.644h-.189a5.406 5.406 0 01-1.361 1.248c-.908.606-2.346 1.21-4.312 1.21-4.918 0-8.891-3.971-8.891-10.025 0-6.053 3.972-10.024 8.891-10.024 1.929 0 3.253.643 4.162 1.249.509.321.957.73 1.322 1.21h.189V3.397h4.729v25.724h-4.162l-.378-2.081zm-.189-7.567c0-3.632-2.042-5.675-4.916-5.675-2.875 0-4.919 2.043-4.919 5.675 0 3.633 2.043 5.674 4.918 5.674 2.874 0 4.917-2.041 4.917-5.674zm25.959 3.976c-.416 1.513-2.799 6.052-8.891 6.052-5.674 0-9.835-4.162-9.835-10.026 0-5.863 4.162-10.024 9.835-10.024 5.297 0 9.458 4.16 9.458 9.646 0 .567-.076 1.022-.113 1.361l-.076.53h-14.375c.416 2.686 2.421 4.539 5.106 4.539 2.232 0 3.595-1.286 3.973-2.08h4.917l.001.002zm-4.162-5.675c-.416-2.46-2.042-4.35-4.729-4.35-2.874 0-4.539 1.892-5.106 4.35h9.835zm7.146-7.95h3.972l.378 1.703h.188c.228-.304.493-.568.834-.832.567-.417 1.398-.871 2.571-.871h3.784v4.54h-3.406c-2.382 0-3.594 1.21-3.594 3.593v11.16h-4.728l.001-19.293zm27.004 17.407h-.189a6.06 6.06 0 01-1.248 1.135c-.871.567-2.271 1.135-4.237 1.135-5.108 0-9.079-3.972-9.079-10.026 0-6.052 3.971-10.024 9.079-10.024 1.966 0 3.366.566 4.237 1.134.492.342.908.72 1.248 1.136h.189l.378-1.894h4.162v19.294h-4.162l-.378-1.891zm-.19-7.755c0-3.632-2.043-5.674-4.918-5.674-2.876 0-4.918 2.042-4.918 5.674 0 3.633 2.043 5.675 4.918 5.675 2.874 0 4.918-2.043 4.918-5.675z" fill="#FC5000"/></svg>