<svg width="103" height="23" viewBox="0 0 103 23" fill="none" xmlns="http://www.w3.org/2000/svg">
<path d="M1.224 18V5.4H9.45V7.254H3.528V10.71H8.91V12.51H3.528V16.146H9.45V18H1.224ZM11.4502 18V5.4H13.7542V16.2H19.3343V18H11.4502ZM21.1843 18V5.4H23.4883V18H21.1843ZM31.2584 18.216C30.0704 18.216 29.0324 17.946 28.1444 17.406C27.2564 16.866 26.5664 16.116 26.0744 15.156C25.5824 14.184 25.3364 13.056 25.3364 11.772C25.3364 10.476 25.5884 9.336 26.0924 8.352C26.6084 7.356 27.3344 6.582 28.2704 6.03C29.2184 5.466 30.3404 5.184 31.6364 5.184C33.1124 5.184 34.3364 5.538 35.3084 6.246C36.2804 6.954 36.9104 7.932 37.1984 9.18H34.6244C34.4324 8.592 34.0844 8.136 33.5804 7.812C33.0764 7.476 32.4284 7.308 31.6364 7.308C30.3764 7.308 29.4044 7.71 28.7204 8.514C28.0364 9.306 27.6944 10.398 27.6944 11.79C27.6944 13.182 28.0304 14.262 28.7024 15.03C29.3864 15.786 30.3104 16.164 31.4744 16.164C32.6144 16.164 33.4724 15.858 34.0484 15.246C34.6364 14.622 34.9904 13.806 35.1104 12.798H31.9244V11.07H37.4324V18H35.3084L35.1284 16.344C34.7204 16.944 34.2104 17.406 33.5984 17.73C32.9864 18.054 32.2064 18.216 31.2584 18.216ZM39.4923 18V5.4H41.7963V18H39.4923ZM44.0584 18V5.4H49.1164C50.4244 5.4 51.4204 5.706 52.1044 6.318C52.8004 6.918 53.1484 7.692 53.1484 8.64C53.1484 9.432 52.9324 10.068 52.5004 10.548C52.0804 11.016 51.5644 11.334 50.9524 11.502C51.6724 11.646 52.2664 12.006 52.7344 12.582C53.2024 13.146 53.4364 13.806 53.4364 14.562C53.4364 15.558 53.0764 16.38 52.3564 17.028C51.6364 17.676 50.6164 18 49.2964 18H44.0584ZM46.3624 10.692H48.7744C49.4224 10.692 49.9204 10.542 50.2684 10.242C50.6164 9.942 50.7904 9.516 50.7904 8.964C50.7904 8.436 50.6164 8.022 50.2684 7.722C49.9324 7.41 49.4224 7.254 48.7384 7.254H46.3624V10.692ZM46.3624 16.128H48.9364C49.6204 16.128 50.1484 15.972 50.5204 15.66C50.9044 15.336 51.0964 14.886 51.0964 14.31C51.0964 13.722 50.8984 13.26 50.5024 12.924C50.1064 12.588 49.5724 12.42 48.9004 12.42H46.3624V16.128ZM55.2338 18V5.4H57.5378V18H55.2338ZM59.7999 18V5.4H62.1039V16.2H67.6839V18H59.7999ZM69.534 18V5.4H77.76V7.254H71.838V10.71H77.22V12.51H71.838V16.146H77.76V18H69.534Z" fill="#0CE800"/>
<path d="M99.6666 6.5L90.4999 15.6667L86.3333 11.5" stroke="#0CE800" stroke-width="2.5" stroke-linecap="round" stroke-linejoin="round"/>
</svg>
