<svg width="171" height="36" viewBox="0 0 171 36" fill="none" xmlns="http://www.w3.org/2000/svg">
<path d="M0.918014 23.6633C4.49776 19.98 7.78951 15.3596 9.94726 11.4953C10.2246 10.9924 10.631 10.5726 11.1245 10.2792C11.6181 9.98571 12.181 9.82919 12.7553 9.82576H23.3764C24.5475 9.82576 25.6151 10.4726 26.1855 11.4953C28.3433 15.3596 31.635 19.98 35.2148 23.6633C37.197 25.7029 35.7581 29.1195 32.913 29.1195H3.21976C0.374639 29.1195 -1.06424 25.7029 0.918014 23.6633ZM62.1833 21.9375C61.578 24.9638 59.1941 29.5031 53.1045 29.5031C47.4289 29.5031 43.2686 25.3406 43.2686 19.4771C43.2686 13.6136 47.43 9.45338 53.1034 9.45338C59.1941 9.45338 61.5769 13.9916 62.1821 16.8289H57.4538C57.0375 15.7331 55.9418 13.8026 53.1034 13.8026C50.265 13.8026 47.9959 16.0718 47.9959 19.4771C47.9959 22.8825 50.2661 25.1516 53.1034 25.1516C55.9406 25.1516 57.0386 23.2605 57.4538 21.9364L62.1833 21.9375ZM78.3518 27.2329H78.1628C77.8024 27.6685 77.382 28.0507 76.914 28.368C76.0444 28.935 74.6449 29.5031 72.6773 29.5031C67.5698 29.5031 63.5985 25.5308 63.5985 19.4771C63.5985 13.4246 67.5698 9.45338 72.6773 9.45338C74.6438 9.45338 76.0433 10.0193 76.914 10.5874C77.4068 10.9286 77.823 11.307 78.1628 11.7225H78.3518L78.7309 9.82913H82.8923V29.1229H78.7298L78.3518 27.2318V27.2329ZM78.1628 19.4783C78.1628 15.8456 76.1198 13.8038 73.2454 13.8038C70.371 13.8038 68.328 15.8456 68.328 19.4783C68.328 23.1109 70.371 25.1528 73.2443 25.1528C76.1198 25.1528 78.1628 23.1098 78.1628 19.4783ZM86.5463 3.39751H91.2758V23.6363C91.2758 24.3938 91.6538 24.7721 92.4098 24.7714H95.247V29.1218H91.2758C88.2495 29.1218 86.5463 27.4568 86.5463 24.5824V3.39751ZM110.501 27.0416H110.312C109.933 27.533 109.473 27.9554 108.951 28.2904C108.043 28.8956 106.605 29.5009 104.639 29.5009C99.7211 29.5009 95.7476 25.5285 95.7476 19.4749C95.7476 13.4224 99.72 9.45113 104.639 9.45113C106.568 9.45113 107.892 10.0935 108.801 10.6999C109.31 11.0212 109.758 11.4307 110.123 11.9093H110.312V3.39751H115.041V29.1218H110.879L110.501 27.0405V27.0416ZM110.312 19.4749C110.312 15.8434 108.27 13.8004 105.396 13.8004C102.521 13.8004 100.477 15.8434 100.477 19.4749C100.477 23.1075 102.52 25.1494 105.395 25.1494C108.269 25.1494 110.312 23.1075 110.312 19.4749ZM136.271 23.4506C135.855 24.9638 133.472 29.5031 127.38 29.5031C121.706 29.5031 117.545 25.3406 117.545 19.4771C117.545 13.6136 121.707 9.45338 127.38 9.45338C132.677 9.45338 136.838 13.6136 136.838 19.0991C136.838 19.6661 136.762 20.1206 136.725 20.4604L136.649 20.9903H122.274C122.69 23.6756 124.695 25.5285 127.38 25.5285C129.612 25.5285 130.975 24.2426 131.353 23.4484H136.27L136.271 23.4506ZM132.109 17.7761C131.693 15.3169 130.067 13.4258 127.38 13.4258C124.506 13.4258 122.841 15.318 122.274 17.7761H132.109ZM139.255 9.82576H143.227L143.605 11.529H143.793C144.021 11.2253 144.286 10.9609 144.627 10.6965C145.194 10.2803 146.025 9.82576 147.198 9.82576H150.982V14.3663H147.576C145.194 14.3663 143.982 15.5768 143.982 17.9595V29.1195H139.254L139.255 9.82576ZM166.259 27.2329H166.07C165.709 27.6675 165.289 28.0496 164.822 28.368C163.951 28.935 162.551 29.5031 160.585 29.5031C155.477 29.5031 151.506 25.5308 151.506 19.4771C151.506 13.4246 155.477 9.45338 160.585 9.45338C162.551 9.45338 163.951 10.0193 164.822 10.5874C165.314 10.9286 165.73 11.307 166.07 11.7225H166.259L166.637 9.82913H170.799V29.1229H166.637L166.259 27.2318V27.2329ZM166.069 19.4783C166.069 15.8456 164.026 13.8038 161.151 13.8038C158.275 13.8038 156.233 15.8456 156.233 19.4783C156.233 23.1109 158.276 25.1528 161.151 25.1528C164.025 25.1528 166.069 23.1098 166.069 19.4783Z" fill="#FC5000"/>
</svg>
